<?xml version="1.0" standalone="no"?>
<!DOCTYPE svg PUBLIC "-//W3C//DTD SVG 20010904//EN" "http://www.w3.org/TR/2001/REC-SVG-20010904/DTD/svg10.dtd">
<!-- Created using Krita: https://krita.org -->
<svg xmlns="http://www.w3.org/2000/svg" 
    xmlns:xlink="http://www.w3.org/1999/xlink"
    xmlns:krita="http://krita.org/namespaces/svg/krita"
    xmlns:sodipodi="http://sodipodi.sourceforge.net/DTD/sodipodi-0.dtd"
    width="240pt"
    height="480pt"
    viewBox="0 0 240 480">
<defs/>
<path id="shape0" transform="translate(-6.7199997388509, 14.1093671339465)" fill="none" stroke="#ffffff" stroke-width="1.2" stroke-linecap="square" stroke-linejoin="bevel" d="M0 70.3706C0 23.7574 58.5311 0.290632 98.88 0.290632C104.802 0.290632 118.358 -1.35141 122.88 3.17063C140.313 20.6038 38.7353 86.1624 89.28 103.011C134.56 118.104 231.46 17.5706 180.48 17.5706C179.295 17.5706 174.397 16.934 173.76 17.5706C135.396 55.9351 123.353 104.463 93.12 154.851C79.4577 177.621 71.0803 205.69 54.72 222.051C54.5704 222.2 51.0296 222.2 50.88 222.051C44.1192 215.29 40.2175 201.788 33.6 195.171C32.2181 193.789 32.64 187.776 32.64 185.571C32.64 112.921 159.078 209.457 189.12 119.331C191.867 111.089 217.517 79.5672 206.4 68.4506C187.435 49.4859 153.314 151.44 144 165.411C122.142 198.197 57.5496 322.8 86.4 351.651C113.247 378.497 169.42 358.83 175.68 365.091C217.785 407.196 56.2776 455.458 82.56 376.611C87.421 362.028 93.2805 354.17 105.6 344.931C115.272 337.677 125.966 333.599 138.24 330.531C207.141 313.305 184.368 373.968 191.04 407.331C193.265 418.456 201.079 431.509 207.36 440.931C221.681 462.411 357.563 499.491 378.24 499.491" sodipodi:nodetypes="cccccccccccccccccccccc"/>
</svg>
